# File created by Blade
# Date/Time:  Thu Jan 22 19:01:15 2015
# Frame Rate: 120.000 fps
#------------------------------------------------------
:FULLY-SPECIFIED
:DEGREES
1676
root -2.966946 33.224114 -0.192299 8.370422 4.675966 3.313671
RightUpLeg -0.934932 -8.551786 -1.677280
RightLeg 1.154706 -0.000000 -0.000000
RightFoot -12.666524 -7.276347 3.257318
RightToeBase 5.222009 -0.000000 -0.000000
LeftUpLeg -1.643839 0.589937 1.423112
LeftLeg -0.968356 -0.000000 0.000000
LeftFoot -7.455818 -1.793609 -10.183701
LeftToeBase 7.892988 -0.000000 -0.000000
Spine -14.064299 -6.330813 -2.765288
RightShoulder -24.261277 18.251190 -53.622700
RightArm 110.388301 53.033588 96.251695
RightForeArm 27.002609 -0.000000 151.757321
RightHand 20.567924 0.000000 -6.860150
RightHandThumb1 -24.326973 -0.000000 -32.862282
LeftShoulder -12.896143 9.126297 13.013287
LeftArm -182.233273 56.404340 -281.267207
LeftForeArm 31.962630 0.000000 125.656444
LeftHand 10.158982 -0.000000 -15.854475
LeftHandThumb1 -26.253704 0.000000 33.147579
Head 6.876724 10.716518 4.655259
1677
root -2.971798 33.227500 -0.199740 8.344992 4.567248 3.315665
RightUpLeg -0.950342 -8.591658 -1.681540
RightLeg 1.164815 -0.000000 -0.000000
RightFoot -12.626345 -7.162848 3.205529
RightToeBase 5.233256 -0.000000 -0.000000
LeftUpLeg -1.677016 0.613727 1.415172
LeftLeg -0.843167 -0.000000 0.000000
LeftFoot -7.499025 -1.722447 -10.204873
LeftToeBase 7.894150 -0.000000 -0.000000
Spine -14.005682 -5.703616 -2.901581
RightShoulder -24.572854 17.750795 -53.688291
RightArm 110.601497 52.952296 96.480638
RightForeArm 27.005478 -0.000000 151.787542
RightHand 20.445517 -0.000000 -6.990324
RightHandThumb1 -24.326973 -0.000000 -32.862282
LeftShoulder -12.258188 8.778885 13.348898
LeftArm -182.405090 55.956516 -281.529792
LeftForeArm 32.089197 -0.000000 125.683883
LeftHand 10.515624 -0.000000 -14.772012
LeftHandThumb1 -26.253704 0.000000 33.147579
Head 6.858441 10.252733 4.666238
1678
root -2.970349 33.231650 -0.207335 8.327347 4.463732 3.288831
RightUpLeg -0.975933 -8.660767 -1.667766
RightLeg 1.176510 -0.000000 -0.000000
RightFoot -12.557969 -7.013466 3.166147
RightToeBase 5.202031 -0.000000 -0.000000
LeftUpLeg -1.731542 0.694702 1.418178
LeftLeg -0.693949 -0.000000 0.000000
LeftFoot -7.561715 -1.692686 -10.164354
LeftToeBase 7.827764 -0.000000 -0.000000
Spine -13.985483 -5.859243 -2.824040
RightShoulder -24.373433 18.040784 -53.553426
RightArm 110.644770 52.884543 96.545524
RightForeArm 27.069519 -0.000000 151.778170
RightHand 20.394151 -0.000000 -7.196437
RightHandThumb1 -24.326973 -0.000000 -32.862282
LeftShoulder -12.397354 8.571187 13.547422
LeftArm -182.438502 55.569158 -281.752587
LeftForeArm 32.014399 -0.000000 125.700834
LeftHand 10.954049 -0.000000 -13.786824
LeftHandThumb1 -26.253704 0.000000 33.147579
Head 6.928385 10.548001 4.778563
1679
root -2.968099 33.235386 -0.216185 8.304728 4.356730 3.271080
RightUpLeg -1.002001 -8.711567 -1.667807
RightLeg 1.199402 -0.000000 -0.000000
RightFoot -12.502915 -6.871427 3.132684
RightToeBase 5.190730 -0.000000 -0.000000
LeftUpLeg -1.795771 0.796471 1.410268
LeftLeg -0.516566 -0.000000 0.000000
LeftFoot -7.635633 -1.680811 -10.126864
LeftToeBase 7.809944 -0.000000 -0.000000
Spine -13.915200 -6.119081 -2.755194
RightShoulder -24.179788 18.527512 -53.472540
RightArm 110.495378 52.838821 96.562620
RightForeArm 27.143101 -0.000000 151.791806
RightHand 20.280842 -0.000000 -7.301115
RightHandThumb1 -24.326973 -0.000000 -32.862282
LeftShoulder -12.692274 8.385043 13.727277
LeftArm -182.419048 55.198292 -281.964134
LeftForeArm 32.080187 0.000000 125.681113
LeftHand 11.326432 -0.000000 -12.879837
LeftHandThumb1 -26.253704 0.000000 33.147579
Head 6.914527 11.109809 5.037452
1680
root -2.967572 33.239060 -0.224395 8.287743 4.265340 3.273789
RightUpLeg -1.027783 -8.769502 -1.677746
RightLeg 1.216176 -0.000000 -0.000000
RightFoot -12.469241 -6.759546 3.089374
RightToeBase 5.170575 -0.000000 -0.000000
LeftUpLeg -1.870727 0.915527 1.388653
LeftLeg -0.332810 -0.000000 0.000000
LeftFoot -7.690372 -1.712839 -10.112967
LeftToeBase 7.798302 -0.000000 -0.000000
Spine -13.855426 -5.986836 -2.806092
RightShoulder -24.240988 18.628560 -53.514423
RightArm 110.305680 52.798692 96.591971
RightForeArm 27.260176 -0.000000 151.782980
RightHand 20.341929 -0.000000 -7.513010
RightHandThumb1 -24.326973 -0.000000 -32.862282
LeftShoulder -12.558573 8.185813 13.896780
LeftArm -182.494459 54.828217 -282.208303
LeftForeArm 32.147800 -0.000000 125.752559
LeftHand 11.830885 -0.000000 -12.308794
LeftHandThumb1 -26.253704 0.000000 33.147579
Head 6.893464 11.095032 5.186888
